<?xml version="1.0" encoding="utf-8"?>
<!-- Generator: Adobe Illustrator 25.2.0, SVG Export Plug-In . SVG Version: 6.00 Build 0)  -->
<svg version="1.1" id="Layer_1" xmlns="http://www.w3.org/2000/svg" xmlns:xlink="http://www.w3.org/1999/xlink" x="0px" y="0px"
	 viewBox="0 0 799.3 339.4" style="enable-background:new 0 0 799.3 339.4;" xml:space="preserve">
<style type="text/css">
	.st0{fill:#004993;}
	.st1{fill:#F4AA4F;}
	.st2{fill:#FACE4F;}
	.st3{fill:#FFFFFF;}
</style>
<g>
	<g>
		<g>
			<g>
				<path class="st0" d="M169.7,0L169.7,0C76,0,0,76,0,169.7v0c0,93.7,76,169.7,169.7,169.7h0c93.7,0,169.7-76,169.7-169.7v0
					C339.4,76,263.4,0,169.7,0z"/>
			</g>
		</g>
		<polygon class="st1" points="174.6,302.8 90,271.5 90,151.8 174.6,184.1 		"/>
		<polygon class="st2" points="174.6,302.8 259.1,271.5 259.1,151.8 174.6,184.1 		"/>
		<g>
			<path class="st3" d="M169.3,48.1c26.8,0,49.8,21.3,49.8,48.2c0,10.7-4.7,22.7-12,31.5c10.6,4.9,17.9,15.6,17.9,28.1
				c0,19.2-15.5,33.8-35,33.8c-6.4,0-12.2-1.6-17.7-4.7c-2-1.2-3.5-3-3.5-5.4c0-3.5,2.4-7.1,6.4-7.1c1.8,0,3.4,0.8,5.1,1.7
				c1.8,1,6.1,2.1,10,2.1c11.4,0,21.4-8.3,21.4-20.6c0-1.8-0.6-4.7-1.7-7.3v1.3c0,11.9-9.4,21.1-20.6,21.1
				c-11.5,0-20.5-10.1-20.5-21.9c0-5.9,2.3-11.1,5.9-15.2c-0.1-0.4-0.1-0.8-0.1-1.2c0-3.6,2.8-7.2,6.3-8.1
				c11.5-3.1,21.4-13.8,21.4-28.1c0-17.5-15.4-31.4-33-31.4c-17.6,0-33.1,13.9-33.1,31.5c0,14.2,9.7,24.7,20.9,28
				c3.4,0.9,6.2,4.6,6.2,8.1c0,4.6-3.8,8.4-8.4,8.4c-0.7,0-1.8-0.3-2.4-0.4c-17.7-5.1-33.1-21.7-33.1-44
				C119.5,69.3,142.4,48.1,169.3,48.1z M189.7,157.1c4.6,0,7.9-4.2,7.9-8.9c0-4.2-2.8-7.5-6-8.9c-1.3,0.4-2.5,0.8-3.9,1.1
				c-3,1.8-5.4,4.9-5.4,8.2C182.3,153.4,185.7,157.1,189.7,157.1z"/>
			<path class="st3" d="M259.1,116.4c0,8.5-6.7,15.5-15.4,15.5c-8.2,0-15.4-6.5-15.4-14.8c0-9,6.2-16.1,15.6-16.1
				C252.5,101,259.1,108.1,259.1,116.4z M243.8,109.2c-4,0-7.3,3.5-7.3,7.3c0,3.8,3.3,7.2,7.2,7.2c4.2,0,7.3-3.3,7.3-7.3
				C251,112.6,247.7,109.2,243.8,109.2z"/>
		</g>
	</g>
	<g>
		<path class="st0" d="M397.6,106.6c-0.5-0.2-1.2-0.3-2.2-0.3c-0.9,0-1.9,0-3,0c-1.1,0-2.1,0-3.1,0c-1,0-1.8,0-2.5,0h-5.7
			c-0.8,0-1.7,0-2.7,0c-1,0-2,0-3.1,0c-1,0-2,0-2.9,0s-1.6,0.1-2.1,0.3l-0.2-0.4l0.3-3.7l0.5-0.4c2.4,0,4.1-0.3,5-0.9
			c1.3-0.9,2.2-2.8,2.5-5.6c0.1-1.1,0.1-2.8,0.1-5c0-2.3,0-4.6,0-6.9V62.7c0-2.2,0-4-0.1-5.3c-0.1-1.3-0.2-2.6-0.3-3.9
			c-0.3-1.7-0.5-3-0.8-3.7c-0.3-0.8-0.7-1.4-1.3-1.8c-0.5-0.3-1.1-0.5-1.9-0.7c-0.7-0.1-1.8-0.2-3.3-0.2l-0.5-0.4l-0.3-3.7l0.2-0.4
			c1.7,0.3,3.3,0.4,4.9,0.4c1.6,0,2.9,0,3.9,0h7.3c1.5,0,3.2,0,5,0c1.9,0,3.5,0,4.9,0c7.6,0,13.4,1.4,17.3,4.3
			c3.9,2.8,5.9,7.1,5.9,12.7c0,4-1.2,7.7-3.5,11c-2.3,3.3-5.8,6.1-10.4,8.6c2.2,3.3,4,5.9,5.5,8c1.5,2.1,2.8,3.7,3.9,4.9
			c1.5,1.7,2.8,3.2,4.1,4.3c1.3,1.2,2.5,2.1,3.8,2.9c1.2,0.8,2.5,1.3,3.9,1.7s2.8,0.6,4.5,0.8l0.6,0.4l0.2,3.6l-0.2,0.6
			c-2.4,0-4.5,0-6.3,0c-1.8,0-3.1,0-3.9,0c-3.4,0-6.4-0.9-9.1-2.8c-2.7-1.9-5.5-5.1-8.5-9.6c-0.7-1-1.5-2.2-2.3-3.4
			c-0.8-1.3-1.6-2.5-2.4-3.8c-0.8-1.2-1.6-2.4-2.3-3.6c-0.7-1.1-1.3-2.1-1.7-3h-6.2c0,2.2,0,4,0,5.6s0,2.9,0,4.1
			c0,1.2,0.1,2.1,0.1,3c0.1,0.8,0.1,1.6,0.2,2.3c0.3,2.9,1,4.8,2.1,5.6c0.4,0.3,1,0.5,1.7,0.7c0.7,0.1,1.9,0.2,3.6,0.2l0.4,0.4
			l0.3,3.7L397.6,106.6z M394.2,73.6c4.7,0,8.3-1.1,11-3.3c2.7-2.2,4-5.3,4-9.3c0-3.6-1.2-6.2-3.6-7.8c-2.4-1.6-6.1-2.4-11.3-2.4
			h-4.5c-0.2,2.5-0.3,4.5-0.4,5.9c-0.1,1.4-0.1,2.7-0.1,4v9.4c0,1.3,0.2,2.3,0.5,2.8c0.3,0.5,0.9,0.8,1.8,0.8H394.2z"/>
		<path class="st0" d="M461.8,43c0.9,0,2.2,0,4,0c1.8,0,3.6,0,5.4,0c1.9,0,3.5,0,5,0c1.5,0,2.4,0,2.7,0l0.6,0.9L479,56.2h-4.3
			l-0.4-0.4c-0.1-1.2-0.3-2.2-0.5-2.9c-0.2-0.7-0.8-1.2-1.8-1.6c-1-0.3-2.4-0.5-4.5-0.5c-2,0-4.8,0-8.4,0h-5.5l-0.1,0.9
			c-0.1,0.9-0.1,1.7-0.1,2.5c0,0.8-0.1,1.6-0.1,2.7c0,1,0,2.2,0,3.7c0,1.5,0,3.3,0,5.6v3.2c1.5,0,3,0,4.4,0c1.4,0,2.7,0,3.9,0
			c1.2,0,2.3-0.1,3.1-0.2c0.9-0.2,1.5-0.4,1.9-0.8c0.6-0.7,1-1.6,1-2.8L468,65h3.6l0.4,0.1c-0.1,1.5-0.2,2.8-0.3,3.8
			c-0.1,1.1-0.1,2.3-0.1,3.7c0,1.5,0,3,0.1,4.3c0.1,1.3,0.2,2.7,0.3,4.3l-0.4,0.1h-3.6l-0.4-0.4c0-1.6-0.3-2.8-0.9-3.6
			c-0.5-0.7-2-1.1-4.4-1.1c-2.4,0-5.1,0-8,0h-1.1V84c0,1.8,0,3.3,0,4.5c0,1.2,0.1,2.2,0.1,3.1c0,0.8,0.1,1.7,0.1,2.4
			c0.1,0.8,0.1,1.6,0.2,2.6c0.1,1.2,0.7,1.8,1.9,1.8h4.3c3.6,0,6.5,0,8.6,0c2.1,0,3.7-0.2,4.8-0.7c1.1-0.5,1.9-1.2,2.4-2.1
			c0.5-0.9,0.9-2.2,1.3-3.8l0.4-0.4h4.5l-1.8,14l-0.8,1c-0.3,0-1.1,0-2.4,0s-2.6,0-4.2,0c-1.5,0-3.1,0-4.6,0s-2.8,0-3.6,0h-19.4
			c-0.4,0-1.2,0-2.2,0c-1,0-2.1,0-3.2,0c-1.1,0-2.1,0-3.2,0c-1,0-1.8,0-2.2,0l-0.2-0.1l0.3-3.6l0.5-0.4c1,0,2,0,2.9-0.1
			c0.9-0.1,1.6-0.4,2.2-0.8c0.5-0.4,1-1,1.5-1.7c0.5-0.7,0.8-2,0.9-3.7c0-0.4,0-1,0-1.6c0-0.6,0.1-1.4,0.1-2.3c0-0.9,0-2,0-3.3
			c0-1.3,0-2.9,0-4.8V68.2c0-2.2,0-4.1,0-5.7s0-2.8,0-3.9c0-1.1,0-2,0-2.8c0-0.8-0.1-1.5-0.1-2.3c-0.1-1.7-0.4-3-0.9-3.7
			c-0.5-0.8-1-1.3-1.5-1.7c-0.6-0.5-1.3-0.8-2.2-0.9c-0.9-0.1-1.9-0.1-2.9-0.1l-0.5-0.4l-0.3-3.6l0.2-0.1c0.4,0,1.2,0,2.2,0
			c1,0,2.1,0,3.3,0c1.2,0,2.3,0,3.5,0c1.1,0,2,0,2.7,0H461.8z"/>
		<path class="st0" d="M522.8,42.2l16.5,43.6c0.6,1.6,1.1,2.9,1.5,4c0.4,1.1,0.8,2,1.1,2.8c0.3,0.8,0.5,1.4,0.8,1.9
			c0.2,0.5,0.4,0.9,0.6,1.3c0.8,1.6,1.6,2.8,2.4,3.7c0.8,0.9,1.6,1.5,2.4,1.9c0.8,0.4,1.6,0.7,2.4,0.7c0.8,0.1,1.7,0.1,2.5,0.1
			l0.5,0.4l0.3,3.6l-0.2,0.4c-0.4,0-1.1,0-2-0.1c-0.9-0.1-1.8-0.1-2.8-0.1s-1.9,0-2.7,0s-1.5,0-2,0h-7c-0.4,0-1.2,0-2.2,0
			c-1,0-2.1,0-3.2,0c-1.1,0-2.2,0-3.2,0c-1,0-1.8,0-2.2,0l-0.2-0.1l0.3-3.6l0.4-0.4c1.7,0,2.9-0.2,3.8-0.6c0.9-0.4,1.3-1.6,1.3-3.4
			c0-1-0.2-2.5-0.5-4.4c-0.4-1.9-1.2-4.2-2.4-7.1l-2-4.6H510l-1.9,4.6c-1.2,2.8-2,5.2-2.6,7.2c-0.6,2-0.9,3.4-0.9,4.2
			c0,1.5,0.3,2.6,1,3.2c0.6,0.6,1.8,0.9,3.5,0.9l0.5,0.4l0.3,3.6l-0.2,0.1c-0.4,0-1.2,0-2.1,0s-2,0-3,0c-1.1,0-2.1,0-3,0
			s-1.7,0-2.1,0h-5.7c-0.4,0-1.1,0-2,0c-0.9,0-1.8,0-2.8,0s-1.9,0-2.7,0.1c-0.9,0.1-1.5,0.1-2,0.1l-0.1-0.4l0.2-3.6l0.5-0.4
			c0.8,0,1.7-0.1,2.5-0.2c0.8-0.1,1.7-0.4,2.5-0.9c0.8-0.4,1.6-1.1,2.4-1.9c0.8-0.8,1.6-1.8,2.4-3.1c0.2-0.4,0.5-1,0.9-1.8
			c0.4-0.8,1-2.2,1.8-4.3c0.8-2,2-5,3.5-8.7c1.5-3.8,3.4-8.8,5.9-15.1l8.3-21.2l6.8-2.9H522.8z M511.6,75.2h12.6l-6.1-17L511.6,75.2
			z"/>
		<path class="st0" d="M565.1,53.6c-0.1-1.6-0.4-2.8-0.9-3.6c-0.4-0.8-1-1.4-1.5-1.8c-0.6-0.5-1.2-0.8-1.8-0.9
			c-0.6-0.1-1.7-0.1-3.3-0.1l-0.5-0.4l-0.3-3.6l0.2-0.4c0.4,0,1.1,0.1,1.9,0.2c0.8,0.1,1.7,0.2,2.7,0.2s1.9,0,2.8,0s1.7,0,2.4,0h9.3
			c0.8,0,1.7,0,2.9,0c1.2,0,2.4,0,3.6,0c1.2,0,2.4,0,3.5,0c1.1,0,2.1,0,2.8,0c5,0,9.5,0.8,13.4,2.5c3.9,1.7,7.2,4,9.9,6.9
			c2.7,2.9,4.8,6.2,6.2,10.1c1.4,3.8,2.2,7.9,2.2,12.2c0,4.2-0.7,8.2-2.1,12c-1.4,3.8-3.4,7.2-6.1,10.1c-2.7,2.9-6,5.2-10.1,6.9
			c-4,1.7-8.7,2.6-14,2.6c-0.5,0-1.3,0-2.4,0s-2.2,0-3.4,0c-1.2,0-2.3,0-3.5,0c-1.1,0-2,0-2.6,0h-8.9c-0.4,0-1.2,0-2.2,0
			c-1,0-2.1,0-3.2,0c-1.1,0-2.1,0-3.2,0c-1,0-1.8,0-2.2,0l-0.2-0.1l0.3-3.6l0.5-0.4c0.8,0,1.7,0,2.7-0.1c1-0.1,1.8-0.3,2.4-0.7
			c0.5-0.4,1-1,1.4-1.8c0.4-0.8,0.8-2.1,1-3.7c0-0.4,0-1,0-1.6c0-0.6,0.1-1.4,0.1-2.3c0-0.9,0-2,0-3.3c0-1.3,0-2.9,0-4.8V68.2
			c0-0.6,0-1.6,0-2.9c0-1.3,0-2.7,0-4.2c0-1.5,0-2.9,0-4.3C565.2,55.4,565.2,54.3,565.1,53.6z M585.3,98.6c3.8,0,7.2-0.6,10.2-1.9
			c2.9-1.2,5.4-3,7.4-5.1c2-2.2,3.6-4.7,4.6-7.6c1.1-2.9,1.6-6,1.6-9.4c0-3.5-0.5-6.6-1.6-9.6c-1.1-2.9-2.7-5.4-4.8-7.5
			c-2.1-2.1-4.6-3.8-7.6-4.9c-3-1.2-6.4-1.8-10.3-1.8h-8.4c-0.1,1.9-0.2,3.4-0.2,4.7s-0.1,2.5-0.1,3.8c-0.1,1.3-0.1,2.7-0.1,4.2
			c0,1.5,0,3.4,0,5.7V81c0,3.8,0,6.8,0,9c0,2.1,0.1,3.8,0.2,4.8c0.2,1.7,0.6,2.7,1.2,3.1c0.6,0.4,1.8,0.6,3.5,0.6H585.3z"/>
		<path class="st0" d="M656.1,43.1l-0.3,3.6l-0.4,0.4c-1,0-2,0-2.9,0.1c-0.9,0.1-1.7,0.4-2.3,0.8c-0.6,0.4-1.1,1-1.6,1.7
			c-0.5,0.7-0.7,2-0.7,3.7c-0.1,0.9-0.1,1.7-0.1,2.5c0,0.8-0.1,1.7-0.1,2.7c0,1,0,2.3,0,3.7c0,1.5,0,3.4,0,5.7V82c0,2.3,0,4.2,0,5.6
			c0,1.4,0,2.6,0,3.6c0,1,0.1,1.8,0.1,2.4c0,0.7,0.1,1.4,0.1,2.2c0.1,1.8,0.4,3,0.9,3.7c0.4,0.7,0.9,1.3,1.4,1.7
			c0.6,0.4,1.3,0.7,2.3,0.8c0.9,0.1,1.9,0.1,2.9,0.1l0.4,0.4l0.3,3.6l-0.2,0.1c-0.4,0-1.2,0-2.2,0c-1,0-2.1,0-3.2,0
			c-1.1,0-2.1,0-3.2,0c-1,0-1.8,0-2.2,0h-5.7c-0.4,0-1.2,0-2.2,0c-1,0-2.1,0-3.2,0c-1.1,0-2.1,0-3.2,0c-1,0-1.8,0-2.2,0l-0.2-0.1
			l0.3-3.6l0.5-0.4c1,0,2,0,2.9-0.1c0.9-0.1,1.6-0.4,2.2-0.8c0.5-0.4,1-1,1.4-1.7c0.4-0.7,0.8-2,1-3.7c0-0.4,0-1,0-1.6
			c0-0.6,0.1-1.4,0.1-2.3c0-0.9,0-2,0-3.3c0-1.3,0-2.9,0-4.8V68.2c0-2.2,0-4.1,0-5.7s0-2.8,0-3.9c0-1.1-0.1-2-0.1-2.8
			s-0.1-1.5-0.1-2.3c-0.1-1.7-0.4-2.9-0.9-3.6c-0.4-0.8-0.9-1.4-1.4-1.8c-0.6-0.4-1.3-0.7-2.2-0.8c-0.9-0.1-1.9-0.1-2.9-0.1
			l-0.5-0.4l-0.3-3.6l0.2-0.1c0.4,0,1.2,0,2.2,0c1,0,2.1,0,3.2,0c1.1,0,2.1,0,3.2,0c1,0,1.8,0,2.2,0h5.7c0.4,0,1.2,0,2.2,0
			c1,0,2.1,0,3.2,0c1.1,0,2.1,0,3.2,0c1,0,1.8,0,2.2,0L656.1,43.1z"/>
		<path class="st0" d="M732.4,43l-0.2,3.7l-0.5,0.4c-1,0-1.9,0-2.8,0.1c-0.9,0.1-1.7,0.4-2.3,0.8c-0.5,0.4-1,1-1.6,1.7
			c-0.5,0.7-0.9,2-1.1,3.7c-0.1,0.9-0.1,1.7-0.1,2.5c0,0.8-0.1,1.7-0.1,2.7c0,1,0,2.3,0,3.7s0,3.4,0,5.7v15c0,3.6,0,6.5,0,8.8
			c0,2.3,0.1,4.3,0.1,5.9c0,1.6,0.1,3.1,0.2,4.4c0.1,1.3,0.2,2.7,0.3,4.2l-0.8,0.3h-11.8l-1-1.2l-29.7-44.9c0.1,1.2,0.2,3,0.2,5.5
			c0,2.5,0,5.5,0,8.8v7.1c0,0.8,0,1.8,0,3s0,2.5,0,3.9c0,1.3,0.1,2.6,0.1,3.9c0,1.2,0.1,2.3,0.1,3c0.1,1.6,0.5,2.8,1.1,3.6
			c0.6,0.8,1.2,1.4,1.8,1.8c0.5,0.5,1.2,0.8,2,0.9c0.8,0.1,1.9,0.1,3.2,0.1l0.5,0.4l0.3,3.6l-0.2,0.1c-0.5,0-1.2,0-2.2,0
			c-0.9,0-1.9,0-2.9,0c-1,0-2,0-2.9,0c-0.9,0-1.6,0-2.1,0h-5.7c-0.4,0-1.2,0-2.2,0c-1,0-2.1,0-3.2,0c-1.1,0-2.1,0-3.2,0
			c-1,0-1.8,0-2.2,0l-0.2-0.1l0.3-3.6l0.5-0.4c1.2,0,2.1,0,2.9-0.1c0.8-0.1,1.5-0.4,2.2-0.8c0.4-0.3,1-0.8,1.6-1.6
			c0.6-0.7,1.1-2,1.2-3.9c0.1-0.4,0.1-1,0.1-1.6c0-0.6,0-1.4,0-2.3s0-2,0-3.3c0-1.3,0-2.9,0-4.8V68.2c0-2.2,0-4.1,0-5.7
			c0-1.5,0-2.8,0-3.9c0-1.1,0-2,0-2.8c0-0.8-0.1-1.5-0.1-2.3c-0.1-1.3-0.5-2.5-1.1-3.5c-0.6-1-1.2-1.6-1.8-2
			c-0.6-0.5-1.3-0.8-2.2-0.9c-0.9-0.1-1.8-0.1-2.9-0.1l-0.5-0.4l-0.3-3.7l0.2-0.4c0.4,0,1.1,0,2,0.1c0.9,0.1,1.7,0.1,2.6,0.2
			c0.9,0.1,1.8,0.1,2.6,0.2s1.5,0.1,2,0.1h8.2c0.5,0,1.2,0,1.9-0.1c0.8-0.1,1.4-0.1,2-0.3l0.5,0.3c0.2,0.9,0.7,2.1,1.4,3.7
			c0.8,1.6,1.7,3.3,2.8,5.3c1.1,2,2.3,4,3.6,6.2c1.3,2.2,2.6,4.3,3.8,6.4c2.3,3.9,4.4,7.2,6.1,10.1c1.8,2.9,3.4,5.3,4.8,7.5
			c1.4,2.1,2.6,3.9,3.6,5.3c1,1.4,1.9,2.6,2.6,3.6c0-1.7,0-3.3,0-4.9c0-1.6,0-3.2,0-4.9V68.2c0-2.2,0-4.1,0-5.7c0-1.5,0-2.9,0-4
			c0-1.1-0.1-2-0.1-2.8c0-0.8-0.1-1.5-0.1-2.3c-0.1-1.1-0.4-2.1-0.8-3c-0.4-0.9-1.1-1.8-2-2.5c-0.6-0.5-1.3-0.8-2.3-0.8
			c-0.9,0-1.9,0-2.9,0l-0.4-0.4l-0.3-3.8l0.2-0.4c0.4,0,1.1,0,1.9,0.1c0.8,0.1,1.7,0.1,2.5,0.2c0.9,0.1,1.7,0.1,2.5,0.2
			c0.8,0.1,1.5,0.1,1.9,0.1h8.4c0.4,0,1.1,0,1.9,0c0.8,0,1.7,0,2.6-0.1c0.9-0.1,1.8-0.1,2.6-0.2c0.8-0.1,1.5-0.1,1.9-0.2L732.4,43z"
			/>
		<path class="st0" d="M793.1,103.7c-3.2,1-6.6,1.8-10.1,2.4c-3.5,0.7-7.2,1-11,1c-5.6,0-10.4-0.8-14.5-2.5c-4.1-1.7-7.6-4-10.3-7
			c-2.7-2.9-4.8-6.4-6.1-10.3c-1.3-3.9-2-8-2-12.4c0-4.6,0.7-8.9,2.2-12.9c1.4-4,3.6-7.4,6.4-10.4c2.8-2.9,6.3-5.3,10.5-7
			c4.2-1.7,9-2.5,14.5-2.5c1.2,0,2.6,0.1,4.3,0.2c1.6,0.1,3.3,0.4,5.1,0.7c1.8,0.3,3.6,0.8,5.5,1.3c1.9,0.5,3.7,1.2,5.4,2.1l0.2,0.9
			l-1.6,10.5h-4.3l-0.4-0.3c-0.3-2.2-1.6-4-3.9-5.3c-2.3-1.4-5.9-2.1-10.8-2.1c-3.1,0-5.8,0.3-8.1,0.8c-2.3,0.5-4.5,1.6-6.5,3.1
			c-1.4,1.1-2.6,2.4-3.5,3.9c-0.9,1.5-1.6,3.2-2.1,4.9c-0.5,1.8-0.9,3.7-1.1,5.7c-0.2,2-0.3,4-0.3,6c0,3.9,0.5,7.4,1.6,10.5
			c1.1,3.1,2.5,5.7,4.4,7.8c1.9,2.1,4,3.7,6.6,4.8c2.5,1.1,5.3,1.7,8.2,1.7c0.9,0,1.9,0,2.9-0.1c1.1-0.1,2.1-0.2,3.1-0.4
			c1-0.2,1.9-0.4,2.7-0.7c0.8-0.3,1.4-0.5,1.7-0.8c0.4-0.2,0.6-0.5,0.7-0.8c0.1-0.3,0.1-0.7,0.1-1.3c0-0.5,0-1.2,0-2.2
			c0-1-0.1-1.8-0.2-2.4c-0.1-1.7-0.5-2.9-1-3.8c-0.5-0.9-1-1.4-1.4-1.7c-0.6-0.5-1.4-0.8-2.6-0.8c-1.2,0-2.2,0-3.3,0l-0.5-0.4
			l-0.3-4.1l0.2-0.1c0.4,0,1.2,0,2.2,0c1,0,2,0,3.1,0c1.1,0,2.1,0,3.1,0s1.7,0,2.2,0h6.7c0.4,0,1.1,0,1.8,0c0.8,0,1.6-0.1,2.4-0.1
			c0.8,0,1.6-0.1,2.4-0.1c0.8,0,1.4,0,1.8,0l0.2,0.4l-0.2,4.2l-0.5,0.4c-1.9,0-3.2,0.5-3.9,1.6c-0.7,1.1-1.2,2.6-1.3,4.7
			c-0.1,1.3-0.2,2.6-0.2,4.1c0,1.4,0,2.5,0,3.2c0,1,0,2,0,3.1c0,1.1,0.1,1.8,0.2,2.2L793.1,103.7z"/>
		<path class="st0" d="M397.6,201.6c-0.5-0.2-1.2-0.3-2.2-0.3c-0.9,0-1.9,0-3,0c-1.1,0-2.1,0-3.1,0c-1,0-1.8,0-2.5,0h-5.7
			c-0.8,0-1.7,0-2.7,0c-1,0-2,0-3.1,0c-1,0-2,0-2.9,0s-1.6,0.1-2.1,0.3l-0.2-0.4l0.3-3.7l0.5-0.4c2.4,0,4.1-0.3,5-0.9
			c1.3-0.9,2.2-2.8,2.5-5.6c0.1-1.1,0.1-2.8,0.1-5c0-2.3,0-4.6,0-6.9v-21.1c0-2.2,0-4-0.1-5.3c-0.1-1.3-0.2-2.6-0.3-3.9
			c-0.3-1.7-0.5-3-0.8-3.7c-0.3-0.8-0.7-1.4-1.3-1.8c-0.5-0.3-1.1-0.5-1.9-0.7c-0.7-0.1-1.8-0.2-3.3-0.2l-0.5-0.4l-0.3-3.7l0.2-0.4
			c1.7,0.3,3.3,0.4,4.9,0.4c1.6,0,2.9,0,3.9,0h7.3c1.5,0,3.2,0,5,0c1.9,0,3.5,0,4.9,0c7.6,0,13.4,1.4,17.3,4.3
			c3.9,2.8,5.9,7.1,5.9,12.7c0,4-1.2,7.7-3.5,11c-2.3,3.3-5.8,6.1-10.4,8.6c2.2,3.3,4,5.9,5.5,8c1.5,2.1,2.8,3.7,3.9,4.9
			c1.5,1.7,2.8,3.2,4.1,4.3c1.3,1.2,2.5,2.1,3.8,2.9c1.2,0.8,2.5,1.3,3.9,1.7s2.8,0.6,4.5,0.8l0.6,0.4l0.2,3.6l-0.2,0.6
			c-2.4,0-4.5,0-6.3,0c-1.8,0-3.1,0-3.9,0c-3.4,0-6.4-0.9-9.1-2.8c-2.7-1.9-5.5-5.1-8.5-9.6c-0.7-1-1.5-2.2-2.3-3.4
			c-0.8-1.3-1.6-2.5-2.4-3.8c-0.8-1.2-1.6-2.4-2.3-3.6c-0.7-1.1-1.3-2.1-1.7-3h-6.2c0,2.2,0,4,0,5.6s0,2.9,0,4.1
			c0,1.2,0.1,2.1,0.1,3c0.1,0.8,0.1,1.6,0.2,2.3c0.3,2.9,1,4.8,2.1,5.6c0.4,0.3,1,0.5,1.7,0.7c0.7,0.1,1.9,0.2,3.6,0.2l0.4,0.4
			l0.3,3.7L397.6,201.6z M394.2,168.6c4.7,0,8.3-1.1,11-3.3c2.7-2.2,4-5.3,4-9.3c0-3.6-1.2-6.2-3.6-7.8c-2.4-1.6-6.1-2.4-11.3-2.4
			h-4.5c-0.2,2.5-0.3,4.5-0.4,5.9c-0.1,1.4-0.1,2.7-0.1,4v9.4c0,1.3,0.2,2.3,0.5,2.8c0.3,0.5,0.9,0.8,1.8,0.8H394.2z"/>
		<path class="st0" d="M465.3,137.2c4.9,0,9.3,0.9,13.2,2.6c3.8,1.7,7.1,4.1,9.7,7.1c2.6,3,4.6,6.4,6,10.3c1.4,3.9,2.1,8,2.1,12.3
			c0,4.2-0.7,8.3-2,12.2c-1.3,3.9-3.3,7.4-6,10.4c-2.7,3-6,5.4-9.9,7.2c-3.9,1.8-8.5,2.7-13.7,2.7c-5,0-9.4-0.9-13.2-2.6
			c-3.8-1.7-6.9-4-9.5-7c-2.5-2.9-4.4-6.3-5.7-10.2c-1.3-3.9-1.9-8-1.9-12.2c0-4.5,0.7-8.8,2.1-12.8c1.4-4,3.4-7.5,6-10.5
			c2.6-3,5.9-5.3,9.7-7.1C456,138.1,460.4,137.2,465.3,137.2z M465.2,194.2c3.1,0,5.9-0.7,8.4-2c2.5-1.3,4.5-3.1,6.2-5.3
			c1.7-2.2,2.9-4.8,3.8-7.8c0.9-3,1.3-6.2,1.3-9.6c0-3.5-0.5-6.7-1.4-9.6c-0.9-3-2.3-5.6-4-7.7c-1.8-2.2-3.9-3.9-6.4-5.1
			s-5.3-1.9-8.4-1.9c-3.1,0-5.8,0.6-8.2,1.8c-2.4,1.2-4.4,2.9-6,5.1c-1.6,2.2-2.8,4.8-3.6,7.7c-0.8,3-1.2,6.2-1.2,9.6
			c0,3.8,0.5,7.3,1.4,10.3c1,3,2.3,5.6,4,7.7c1.7,2.1,3.8,3.7,6.1,4.9C459.7,193.6,462.3,194.2,465.2,194.2z"/>
		<path class="st0" d="M536.2,137.2c4.9,0,9.3,0.9,13.2,2.6c3.8,1.7,7.1,4.1,9.7,7.1c2.6,3,4.6,6.4,6,10.3c1.4,3.9,2.1,8,2.1,12.3
			c0,4.2-0.7,8.3-2,12.2c-1.3,3.9-3.3,7.4-6,10.4c-2.7,3-6,5.4-9.9,7.2c-3.9,1.8-8.5,2.7-13.7,2.7c-5,0-9.4-0.9-13.2-2.6
			c-3.8-1.7-6.9-4-9.5-7c-2.5-2.9-4.4-6.3-5.7-10.2c-1.3-3.9-1.9-8-1.9-12.2c0-4.5,0.7-8.8,2.1-12.8c1.4-4,3.4-7.5,6-10.5
			c2.6-3,5.9-5.3,9.7-7.1C527,138.1,531.3,137.2,536.2,137.2z M536.1,194.2c3.1,0,5.9-0.7,8.4-2c2.5-1.3,4.5-3.1,6.2-5.3
			c1.7-2.2,2.9-4.8,3.8-7.8c0.9-3,1.3-6.2,1.3-9.6c0-3.5-0.5-6.7-1.4-9.6c-0.9-3-2.3-5.6-4-7.7c-1.8-2.2-3.9-3.9-6.4-5.1
			s-5.3-1.9-8.4-1.9c-3.1,0-5.8,0.6-8.2,1.8c-2.4,1.2-4.4,2.9-6,5.1c-1.6,2.2-2.8,4.8-3.6,7.7c-0.8,3-1.2,6.2-1.2,9.6
			c0,3.8,0.5,7.3,1.4,10.3c1,3,2.3,5.6,4,7.7c1.7,2.1,3.8,3.7,6.1,4.9C530.6,193.6,533.2,194.2,536.1,194.2z"/>
		<path class="st0" d="M659.3,201.4c-0.4,0-1.2,0-2.2,0c-1,0-2.1,0-3.2,0c-1.1,0-2.1,0-3.2,0c-1,0-1.8,0-2.2,0h-5.7
			c-0.4,0-1.2,0-2.2,0c-1,0-2.1,0-3.2,0c-1.1,0-2.1,0-3.2,0c-1,0-1.8,0-2.2,0l-0.3-0.1l0.3-3.6l0.4-0.4h1.1c1.9,0,3.3-0.3,4.4-0.9
			c1.1-0.6,1.6-1.8,1.6-3.7l-2.1-31.4c-0.1-1.5-0.2-2.8-0.2-3.8c0-1.1-0.2-2.3-0.4-3.6c-0.4,1.2-1,2.8-1.8,4.9
			c-0.8,2.1-1.8,4.5-2.8,7.2c-1.1,2.7-2.2,5.6-3.4,8.7c-1.2,3.1-2.4,6.1-3.6,9.2c-1.2,3-2.4,6-3.4,8.7c-1.1,2.8-2,5.2-2.7,7.2H611
			l-16.8-45.7c0,1.5-0.1,2.8-0.2,3.8c-0.1,1-0.3,2.3-0.4,3.8l-1.2,15.7c-0.1,2.1-0.2,3.9-0.3,5.2c-0.1,1.4-0.2,2.5-0.2,3.5
			c0,1,0,1.8,0,2.5c0,0.7,0,1.4,0,2.1c0,1.9,0.2,3.1,0.6,3.8c0.4,0.7,0.9,1.2,1.4,1.6c0.5,0.5,1.1,0.8,1.8,0.9
			c0.7,0.1,1.5,0.1,2.5,0.1l0.4,0.4l0.3,3.6l-0.2,0.4c-0.4,0-1.1,0-2,0c-0.9,0-1.7-0.1-2.6-0.1c-0.9,0-1.8-0.1-2.6-0.1
			c-0.9,0-1.5,0-2,0h-5.7c-0.4,0-1.2,0-2.2,0c-1,0-2,0-3.2,0c-1.1,0-2.2,0-3.2,0c-1,0-1.7,0-2.2,0l-0.2-0.1l0.3-3.6l0.6-0.4
			c1,0,1.9,0,2.8-0.1c0.9-0.1,1.7-0.4,2.3-0.8c0.5-0.4,1-1,1.5-1.7c0.5-0.7,0.9-2,1.2-3.7c0.1-0.8,0.3-1.8,0.5-3.2
			c0.2-1.3,0.4-3.6,0.7-6.8l1.3-17.6c0.2-2.2,0.3-4.1,0.4-5.7c0.1-1.5,0.2-2.8,0.2-3.9c0-1.1,0.1-2,0.1-2.8c0-0.8,0-1.5,0-2.3
			c0-1.9-0.3-3.1-0.8-3.8c-0.5-0.7-1.1-1.2-1.6-1.6c-0.6-0.5-1.3-0.8-2.2-0.9c-0.9-0.1-1.9-0.1-2.9-0.1l-0.5-0.4l-0.3-3.6l0.2-0.1
			c0.4,0,1.2,0,2.2,0c1,0,2.1,0,3.2,0c1.1,0,2.1,0,3.2,0c1,0,1.8,0,2.2,0h7.4c0.4,0,1,0,1.8,0c0.7,0,1.4,0,2.1-0.1l0.5,0.3
			c0.1,0.9,0.3,2.1,0.7,3.7c0.4,1.6,0.9,3.4,1.5,5.3c0.6,1.9,1.3,4,2.1,6.1c0.8,2.1,1.5,4.2,2.3,6.3l6,15.6c0.7,1.7,1.4,3.6,2.1,5.5
			c0.7,1.9,1.3,3.7,1.9,5.5c0.2-0.3,0.7-1.4,1.5-3.4c0.8-2,1.8-4.4,3-7.4c1.2-2.9,2.4-6.2,3.7-9.7c1.3-3.6,2.6-7.1,3.7-10.5
			c1.2-3.5,2.2-6.7,3.1-9.6c0.9-3,1.4-5.4,1.7-7.2l0.5-0.4c0.5,0,1.1,0.1,1.6,0.1c0.6,0,1.1,0,1.6,0h8.3c0.4,0,1.2,0,2.2,0
			c1,0,2.1,0,3.2,0c1.1,0,2.1,0,3.2,0c1,0,1.8,0,2.2,0l0.2,0.1l-0.3,3.6l-0.5,0.4c-1,0-1.9,0-2.8,0.1c-0.9,0.1-1.7,0.4-2.3,0.8
			c-0.5,0.4-1,1-1.6,1.7c-0.5,0.8-0.8,2-0.8,3.8c0,0.9,0,1.7,0,2.5c0,0.8,0,1.7,0.1,2.7c0.1,1,0.1,2.3,0.2,3.8
			c0.1,1.5,0.2,3.4,0.4,5.7l1.2,13.8c0.2,2.3,0.4,4.2,0.5,5.6c0.1,1.4,0.2,2.6,0.3,3.6c0.1,1,0.2,1.8,0.2,2.5
			c0.1,0.7,0.2,1.4,0.3,2.2c0.3,1.9,0.6,3.1,1.2,3.8c0.5,0.7,1,1.3,1.5,1.6c0.6,0.5,1.3,0.8,2.3,0.8c0.9,0,1.9,0,2.9,0l0.5,0.4
			L659.3,201.4L659.3,201.4z"/>
		<path class="st0" d="M418.5,247.4c-0.2-1.4-0.8-2.6-1.8-3.6c-1-1-2.3-1.8-3.8-2.4c-1.5-0.6-3.2-1-5-1.2c-1.8-0.3-3.6-0.4-5.4-0.4
			c-5.7,0-10.1,1.4-13.2,4.3c-2.4,2.2-4.2,5.1-5.3,8.7c-1.1,3.6-1.6,7.5-1.6,11.8c0,4,0.6,7.6,1.7,10.7c1.1,3.1,2.7,5.6,4.6,7.7
			c2,2.1,4.3,3.6,7,4.7c2.7,1.1,5.6,1.6,8.8,1.6c2.8,0,5.9-0.3,9.6-0.9c3.6-0.6,7-1.8,10.2-3.5l1.2,2.1l-2.3,4.2
			c-3.3,2-6.7,3.6-10,4.5c-3.4,1-6.8,1.4-10.3,1.4c-4.8,0-9.2-0.8-13.1-2.3c-3.9-1.5-7.2-3.7-10-6.6s-4.9-6.2-6.5-10.2
			c-1.5-3.9-2.3-8.3-2.3-13.1c0-4.5,0.7-8.7,2.1-12.7c1.4-4,3.4-7.5,6.1-10.4c2.7-2.9,6.1-5.3,10.1-7c4-1.7,8.7-2.6,14-2.6
			c1.3,0,2.8,0,4.5,0c1.7,0,3.6,0.1,5.5,0.4s3.9,0.7,5.8,1.3c2,0.6,3.8,1.2,5.6,2.1l0.3,0.9l-1.2,10.8h-4.7L418.5,247.4z"/>
		<path class="st0" d="M464.4,232.2c4.9,0,9.3,0.9,13.2,2.6c3.8,1.7,7.1,4.1,9.7,7.1c2.6,3,4.6,6.4,6,10.3c1.4,3.9,2.1,8,2.1,12.3
			c0,4.2-0.7,8.3-2,12.2c-1.3,3.9-3.3,7.4-6,10.4c-2.7,3-6,5.4-9.9,7.2c-3.9,1.8-8.5,2.7-13.7,2.7c-5,0-9.4-0.9-13.2-2.6
			c-3.8-1.7-6.9-4-9.5-7c-2.5-2.9-4.4-6.3-5.7-10.2c-1.3-3.9-1.9-8-1.9-12.2c0-4.5,0.7-8.8,2.1-12.8c1.4-4,3.4-7.5,6-10.5
			c2.6-3,5.9-5.3,9.7-7.1C455.2,233.1,459.5,232.2,464.4,232.2z M464.3,289.2c3.1,0,5.9-0.7,8.4-2c2.5-1.3,4.5-3.1,6.2-5.3
			c1.7-2.2,2.9-4.8,3.8-7.8c0.9-3,1.3-6.2,1.3-9.6c0-3.5-0.5-6.7-1.4-9.6c-0.9-3-2.3-5.6-4-7.7c-1.8-2.2-3.9-3.9-6.4-5.1
			s-5.3-1.9-8.4-1.9c-3.1,0-5.8,0.6-8.2,1.8c-2.4,1.2-4.4,2.9-6,5.1c-1.6,2.2-2.8,4.8-3.6,7.7c-0.8,3-1.2,6.2-1.2,9.6
			c0,3.8,0.5,7.3,1.4,10.3c1,3,2.3,5.6,4,7.7c1.7,2.1,3.8,3.7,6.1,4.9C458.8,288.6,461.4,289.2,464.3,289.2z"/>
		<path class="st0" d="M503.7,291c0-0.8,0.2-1.5,0.5-2.3c0.3-0.8,0.8-1.5,1.3-2.1c0.6-0.6,1.2-1.1,2-1.4c0.7-0.4,1.5-0.5,2.4-0.5
			c1.6,0,3.1,0.7,4.4,2c1.3,1.3,2,2.8,2,4.4c0,0.8-0.2,1.6-0.5,2.4c-0.4,0.7-0.8,1.4-1.4,2c-0.6,0.6-1.3,1-2.1,1.3
			c-0.8,0.3-1.5,0.5-2.3,0.5c-1.7,0-3.1-0.6-4.3-1.8C504.3,294.1,503.7,292.6,503.7,291z"/>
	</g>
</g>
</svg>
